<?xml version="1.0" encoding="utf-8"?>
<!-- Generator: Adobe Illustrator 19.0.0, SVG Export Plug-In . SVG Version: 6.00 Build 0)  -->
<svg version="1.1" id="Layer_1" xmlns="http://www.w3.org/2000/svg" xmlns:xlink="http://www.w3.org/1999/xlink" x="0px" y="0px"
	 viewBox="0 0 786.4 504.9" style="enable-background:new 0 0 786.4 504.9;" xml:space="preserve">
<style type="text/css">
	.st0{fill:none;stroke:#5974AA;stroke-width:2;}
	.st1{fill:none;stroke:#5B78B3;stroke-width:2;}
	.st2{fill:none;stroke:#214083;stroke-width:2;}
	.st3{fill:none;stroke:#7D7E67;stroke-width:2;}
	.st4{fill:none;stroke:#BCA582;stroke-width:2;}
	.st5{fill:none;stroke:#C9B992;stroke-width:2;}
	.st6{fill:none;stroke:#E1AF3F;stroke-width:2;}
	.st7{fill:none;stroke:#716A57;stroke-width:2;}
	.st8{fill:#A5AFD5;}
	.st9{fill:#20438D;}
	.st10{fill:#233C79;}
	.st11{fill:#D19B2E;}
	.st12{fill:#EEC24E;}
</style>
<path vector-effect="non-scaling-stroke" class="st0" d="M525.8,250.8c0.4,1.4,0.7,2.9,1.1,4.4c1.6,6.3,5.1,11.1,10.6,14.4
	c5.2,3.1,10.7,4.1,16.6,3.1c18.7-3.2,49.5-8.7,92.6-16.3"/>
<path vector-effect="non-scaling-stroke" class="st1" d="M646.7,256.4l137.5-24.1c0.6-0.1,1.1-0.7,1.1-1.3c-0.1-22.8-0.3-39,0-54.5
	c0.1-5.3-0.1-8.8-0.5-10.6c-2.5-10.5-9.1-16.9-19.9-19.1c-2-0.4-5-0.2-9,0.5c-36.5,6.5-73,12.9-109.5,19.3"/>
<path vector-effect="non-scaling-stroke" class="st0" d="M646.4,166.6l-101,17.8c-0.5,0.1-0.9-0.2-1-0.7c0-0.1,0-0.1,0-0.2
	c0.2-4.7,0.2-9,0.1-12.9c-0.2-6.1-2.7-11.1-7.3-14.8c-0.4-0.3-0.5-1-0.2-1.4c11.9-16.7,29.8-29,50.3-32.7
	c19.3-3.5,38.7-6.9,58.1-10.3"/>
<path vector-effect="non-scaling-stroke" class="st1" d="M760.9,1c-43.7,7.7-79.5,14.1-107.5,19c-2.5,0.4-4.9,0.9-7.2,1.3"/>
<path vector-effect="non-scaling-stroke" class="st1" d="M645.2,111.3l139.1-24.4c0.5-0.1,0.9-0.6,0.9-1.1
	c-0.1-20.9-0.2-42.5-0.1-64.7c0-10.3-5-17-15-20.1"/>
<path vector-effect="non-scaling-stroke" class="st0" d="M646.2,21.3L545.9,38.7"/>
<path vector-effect="non-scaling-stroke" class="st2" d="M646.4,166.6c-1.1,6.8-1.7,12.4-2,16.6c-1.4,23.6-1.1,48.7,2.3,73.2"/>
<path vector-effect="non-scaling-stroke" class="st0" d="M525.7,250.5l0.3-8.5c0-0.2-0.1-0.4-0.4-0.4c0,0,0,0-0.1,0
	c-0.3,0-0.4,0.2-0.5,0.4"/>
<path vector-effect="non-scaling-stroke" class="st0" d="M524.4,242c0-0.3-0.2-0.4-0.4-0.4c-59,10.5-118.3,21-177.9,31.5"/>
<path vector-effect="non-scaling-stroke" class="st3" d="M346.1,273.1c40.6-36.7,81-73.3,121.2-109.6c1.6-1.5,2.8-2.3,3.6-2.4
	c10.6-1.8,21.2-3.6,31.8-5.5c6.5-1.1,13-2.3,19.5-3.6"/>
<path vector-effect="non-scaling-stroke" class="st0" d="M525.7,133.5l0.3-37c0-0.3-0.2-0.5-0.5-0.5c0,0-0.1,0-0.1,0l-86.1,15.1"/>
<path vector-effect="non-scaling-stroke" class="st2" d="M439.4,111.2c0.5-12.2,0.8-24.2,1-36.1c0.2-18.7-0.7-35.2-6.3-52.9"/>
<path vector-effect="non-scaling-stroke" class="st2" d="M645.2,111.3c-1.5-22.1-1.8-44.1-1-66c0.3-7.9,0.9-15.9,1.9-24"/>
<path vector-effect="non-scaling-stroke" class="st1" d="M439.4,111.2l-157.7,27.8"/>
<path vector-effect="non-scaling-stroke" class="st2" d="M281.7,139.1c-6-29-11.4-58-16.2-87.1"/>
<path vector-effect="non-scaling-stroke" class="st0" d="M518.7,7.3c-28.2,5-56.4,10-84.7,15"/>
<path vector-effect="non-scaling-stroke" class="st0" d="M545.1,38.8c-0.2,0.4-0.4,0.3-0.7-0.3c-0.2-0.3-0.2-0.6-0.2-1
	c0.2-5.1,0.3-9.5,0.2-13c-0.2-8.8-6.8-15.8-15.3-17.6"/>
<path vector-effect="non-scaling-stroke" class="st1" d="M434,22.3L265.5,52"/>
<path vector-effect="non-scaling-stroke" class="st0" d="M265.5,52l-22,3.8"/>
<path vector-effect="non-scaling-stroke" class="st4" d="M243.5,55.8c-0.4-0.1-0.6-0.2-0.7-0.4c-1.5-3.7-2.6-7.4-3.5-11.2"/>
<path vector-effect="non-scaling-stroke" class="st5" d="M346.1,273.1c0.3-0.1,0.2,0-0.2,0.2c-0.1,0.1-0.2,0.2-0.1,0.4
	c0,0.1,0.1,0.1,0.2,0.2"/>
<path vector-effect="non-scaling-stroke" class="st3" d="M338,329.3c-0.2,0.6-0.2,1.1,0,1.6c1.6,4.8,3.3,9.7,5,14.5"/>
<path vector-effect="non-scaling-stroke" class="st6" d="M343,345.4c-1.4,0.4-2.7,0.4-3.9,0.3c-0.3,0-0.6-0.3-0.7-0.6l-2.6-7.6
	c-0.1-0.3-0.5-0.5-0.8-0.4c0,0,0,0,0,0c-28.9,10.3-53.8,18-74.8,23c-16.4,4-34.6,8.3-52.5,13.7c-26.4,8-52.8,14.9-79.1,21
	c-0.3,0.1-0.6,0.3-0.7,0.6L109.8,454c-0.1,0.4-0.4,0.6-0.7,0.7c-1.7,0.5-3.1,1.5-4.1,2.8c-0.2,0.3-0.4,0.6-0.5,1l-12.5,39.2"/>
<path vector-effect="non-scaling-stroke" class="st7" d="M243.5,55.8l29.3,84.9"/>
<path vector-effect="non-scaling-stroke" class="st4" d="M272.7,140.7l0.4,0.3"/>
<path vector-effect="non-scaling-stroke" class="st6" d="M273.1,141.5l-3.6,2.4c-0.3,0.2-0.4,0.5-0.3,0.8l14.2,41.7
	c0,0.1,0,0.2-0.1,0.2c0,0,0,0,0,0l-93.7,9.3c-0.2,0-0.4-0.1-0.4-0.3c0,0,0-0.1,0-0.1l8.5-28.1c0-0.1,0-0.1,0-0.2
	c0-0.8-0.4-0.9-1.3-0.3c-0.2,0.1-0.5,0.1-0.6-0.1c0,0,0-0.1-0.1-0.1c-0.7-1.8-0.7-3.6-0.1-5.4c10.8-36.3,21.1-70,30.8-101.2
	c1-3.2,2.4-7.3,4.2-12.3c0.4-1,0.5-2.2,0.6-3.4c0-0.6,0.2-1.2,0.5-1.8c1-1.9,1.4-4,1.3-6.1"/>
<path vector-effect="non-scaling-stroke" class="st0" d="M281.7,139.1l-9,1.6"/>
<path vector-effect="non-scaling-stroke" class="st6" d="M370.3,424.2c1.9,7.8,4.5,15.2,7.8,22.4"/>
<path vector-effect="non-scaling-stroke" class="st6" d="M379.9,451.9c-1.1,0.2-2.1,0-3.1-0.6c-7.3-4.2-21.4-12.1-42.3-23.5
	c-29.1-15.9-53.1-29.1-72.1-39.8c-0.3-0.2-0.4-0.5-0.2-0.8l1.4-2.5c0.2-0.3,0.1-0.7-0.3-0.9l-28.5-15.7c-0.3-0.2-0.6-0.1-0.8,0.1
	l-44,40c-0.2,0.1-0.2,0.4,0,0.5c0,0,0.1,0.1,0.1,0.1c1.7,1,1.9,2.8,0.5,4.2c-33,30-61.4,55.7-85.2,77.2"/>
<path vector-effect="non-scaling-stroke" class="st0" d="M386.6,411.4l-17.7,3.3"/>
<path vector-effect="non-scaling-stroke" class="st7" d="M368.3,417.3c-0.6,0.4-0.9-0.2-0.8-1.7c0-0.3-0.1-0.6-0.3-0.9
	c-0.4-0.5-0.7-1.2-1-2.1c-7.7-22.4-15.4-44.7-23.1-67.1"/>
<path vector-effect="non-scaling-stroke" class="st5" d="M237.6,375.5c-0.4-0.9-1-1.5-1.9-1.7c-0.3-0.1-0.6-0.1-0.9,0
	c-1.4,0.6-2.4,1.7-3,3"/>
<path vector-effect="non-scaling-stroke" class="st1" d="M488.1,393.4l-101.5,17.9"/>
<path vector-effect="non-scaling-stroke" class="st2" d="M386.6,411.4L366.1,325"/>
<path vector-effect="non-scaling-stroke" class="st1" d="M785.1,258.9c-2.1-0.8-3.6-0.4-4.4,1.1c-8.1,14.7-21.2,26.8-36.8,33.2
	c-4,1.7-11.2,3.4-21.7,5.3c-22.6,4-45.2,8-67.7,12"/>
<path vector-effect="non-scaling-stroke" class="st0" d="M654.5,310.6l-109.2,19.2c-0.5,0.1-0.9-0.2-1-0.7c0-0.1,0-0.1,0-0.2
	c0.2-5.3,1-13.5-0.8-18.7c-3.2-9.5-12.7-14.1-22.6-12.5c-6.1,1-18.4,3.2-36.9,6.6"/>
<path vector-effect="non-scaling-stroke" class="st1" d="M484,304.3L366.1,325"/>
<path vector-effect="non-scaling-stroke" class="st0" d="M366.1,325c-8.4,1.5-16.9,3-25.5,4.5c-0.8,0.1-1.3,0.1-1.5-0.1"/>
<path vector-effect="non-scaling-stroke" class="st0" d="M525.8,396.3l0.3-8.9c0-0.3-0.2-0.6-0.5-0.6c0,0-0.1,0-0.1,0l-37.3,6.6"/>
<path vector-effect="non-scaling-stroke" class="st2" d="M488.1,393.4c0.1-13.6,0.2-27.1,0.2-40.6c0-16.1-1.4-32.3-4.3-48.6"/>
<path vector-effect="non-scaling-stroke" class="st1" d="M785.4,286.2c-0.2,22.5-0.3,45.1-0.1,67.5c0,4.9-0.3,8.5-1.2,10.8
	c-2.1,5.9-5.7,10.4-10.9,13.5c-2.3,1.3-7.2,2.7-15,4c-37.2,6.5-74.4,13.1-111.6,19.6"/>
<path vector-effect="non-scaling-stroke" class="st2" d="M646.7,401.8c-2-15.3-2.9-30.6-2.7-46c0.1-7.2-0.1-19.7,0.7-29.8
	c0.5-6.7,3.8-11.9,9.8-15.4"/>
<path vector-effect="non-scaling-stroke" class="st0" d="M525.8,396.7c0.7,2.1,1,4.5,1.7,6.3c2.4,5.9,6.4,10.3,11.9,13
	c5.9,2.9,11.4,2.7,18.3,1.5c29.7-5.3,59.4-10.5,89-15.7"/>
<path class="st8" d="M780.9,6.7c4.5,4.8,5.3,12.1,5.3,18.5c0,26,0,46.2,0,60.5c0,0.9-0.6,1.6-1.4,1.9C783,88,781,88,779,88.3
	c-112.6,19.9-173.7,30.7-183.2,32.3c-9.2,1.5-16.1,3.2-20.9,5.1c-15.1,5.9-27.4,15.4-37,28.3c-0.3,0.5-0.3,1.1,0.2,1.5
	c5.3,4.8,7.4,10.6,7.1,17.8c0,0.9,0,4.1,0,9.6c0,0.6,0.5,1,1,1c0.1,0,0.3,0,0.4-0.1c2.6-1.1,5.2-1.2,8.4-1.7
	c54.2-9.6,121.4-21.5,201.7-35.6c7.6-1.3,12.9,0.3,19.3,4.3c2.5,1.5,4.6,3.9,6.4,7.1c2.5,4.4,3.7,9.1,3.7,14
	c0.1,18.8,0.1,38.8,0,60.1c0,0.3-0.2,0.6-0.5,0.6c-93.9,16.6-169.1,29.8-225.6,39.8c-4.1,0.7-8.9,1.8-12.8,1.4
	c-4.3-0.5-8.3-2.1-12.1-4.9c-6.1-4.6-9.2-10.6-9.3-18c0.4,1.4,0.7,2.9,1.1,4.4c1.6,6.3,5.1,11.1,10.6,14.4
	c5.2,3.1,10.7,4.1,16.6,3.1c18.7-3.2,49.5-8.7,92.6-16.3l137.5-24.1c0.6-0.1,1.1-0.7,1.1-1.3c-0.1-22.8-0.3-39,0-54.5
	c0.1-5.3-0.1-8.8-0.5-10.6c-2.5-10.5-9.1-16.9-19.9-19.1c-2-0.4-5-0.2-9,0.5c-36.5,6.5-73,12.9-109.5,19.3l-101,17.8
	c-0.5,0.1-0.9-0.2-1-0.7c0-0.1,0-0.1,0-0.2c0.2-4.7,0.2-9,0.1-12.9c-0.2-6.1-2.7-11.1-7.3-14.8c-0.4-0.3-0.5-1-0.2-1.4
	c11.9-16.7,29.8-29,50.3-32.7c19.3-3.5,38.7-6.9,58.1-10.3l139.1-24.4c0.5-0.1,0.9-0.6,0.9-1.1c-0.1-20.9-0.2-42.5-0.1-64.7
	c0-10.3-5-17-15-20.1"/>
<path class="st8" d="M760.9,1c-43.7,7.7-79.5,14.1-107.5,19c-2.5,0.4-4.9,0.9-7.2,1.3L545.9,38.7c0.3-0.5,0.6-0.8,1.2-0.8
	c1.2-0.1,2.8-0.3,4.7-0.6c111.5-19.6,175.5-31,192.2-33.9"/>
<path class="st9" d="M770.2,1c10,3.1,15,9.8,15,20.1c-0.1,22.2,0,43.8,0.1,64.7c0,0.5-0.4,1-0.9,1.1l-139.1,24.4
	c-1.5-22.1-1.8-44.1-1-66c0.3-7.9,0.9-15.9,1.9-24c2.3-0.4,4.7-0.9,7.2-1.3c28-4.9,63.9-11.3,107.5-19"/>
<path class="st8" d="M530.2,6.5c4.5,1.2,8.1,3.4,10.7,6.5c2.5,2.9,3.8,6.8,4,11.5c0.2,4.7,0.2,9.5,0.2,14.3
	c-0.2,0.4-0.4,0.3-0.7-0.3c-0.2-0.3-0.2-0.6-0.2-1c0.2-5.1,0.3-9.5,0.2-13c-0.2-8.8-6.8-15.8-15.3-17.6"/>
<path class="st8" d="M518.7,7.3c-28.2,5-56.4,10-84.7,15L265.5,52l-22,3.8c-0.4-0.1-0.6-0.2-0.7-0.4c-1.5-3.7-2.6-7.4-3.5-11.2
	l3.8,9.6c0.2,0.6,0.8,0.9,1.4,0.9c0.7,0,1.5-0.1,2.4-0.2c48-8.4,133.6-23.5,256.7-45.2"/>
<path class="st10" d="M529.2,6.9c8.4,1.8,15,8.9,15.3,17.6c0.1,3.5,0,7.9-0.2,13c0,0.3,0.1,0.7,0.2,1c0.3,0.6,0.5,0.7,0.7,0.3
	l0.7-0.1l100.3-17.4c-1,8.1-1.7,16.2-1.9,24c-0.8,21.9-0.4,43.9,1,66c-19.4,3.4-38.7,6.9-58.1,10.3c-20.5,3.7-38.4,16-50.3,32.7
	c-0.3,0.4-0.2,1.1,0.2,1.4c4.7,3.7,7.1,8.6,7.3,14.8c0.1,3.9,0.1,8.2-0.1,12.9c0,0.5,0.3,0.9,0.8,0.9c0.1,0,0.1,0,0.2,0l101-17.8
	c-1.1,6.8-1.7,12.4-2,16.6c-1.4,23.6-1.1,48.7,2.3,73.2c-43,7.6-73.9,13.1-92.6,16.3c-5.9,1-11.4,0-16.6-3.1
	c-5.5-3.3-9.1-8.1-10.6-14.4c-0.4-1.5-0.7-2.9-1.1-4.4c0-0.1,0-0.2-0.1-0.3l0.3-8.5c0-0.2-0.1-0.4-0.4-0.4c0,0,0,0-0.1,0
	c-0.3,0-0.4,0.2-0.5,0.4l-0.7,0c0-0.3-0.2-0.4-0.4-0.4c-59,10.5-118.3,21-177.9,31.5c40.6-36.7,81-73.3,121.2-109.6
	c1.6-1.5,2.8-2.3,3.6-2.4c10.6-1.8,21.2-3.6,31.8-5.5c6.5-1.1,13-2.3,19.5-3.6l3.4-0.3c0.3,0,0.6-0.3,0.6-0.7l-0.4-17.4l0.3-37
	c0-0.3-0.2-0.5-0.5-0.5c0,0-0.1,0-0.1,0l-86.1,15.1c0.5-12.2,0.8-24.2,1-36.1c0.2-18.7-0.7-35.2-6.3-52.9c28.3-5,56.5-10,84.7-15"/>
<path class="st9" d="M439.4,111.2l-157.7,27.8c-6-29-11.4-58-16.2-87.1L434,22.3c5.6,17.7,6.5,34.1,6.3,52.9
	C440.2,87,439.9,99.1,439.4,111.2z"/>
<path class="st11" d="M239.3,44.2c0.8,3.8,2,7.6,3.5,11.2c0.1,0.2,0.3,0.3,0.7,0.4l29.3,84.9l0.4,0.3l-0.1,0.5l-3.6,2.4
	c-0.3,0.2-0.4,0.5-0.3,0.8l14.2,41.7c0,0.1,0,0.2-0.1,0.2c0,0,0,0,0,0l-93.7,9.3c-0.2,0-0.4-0.1-0.4-0.3c0,0,0-0.1,0-0.1l8.5-28.1
	c0-0.1,0-0.1,0-0.2c0-0.8-0.4-0.9-1.3-0.3c-0.2,0.1-0.5,0.1-0.6-0.1c0,0,0-0.1-0.1-0.1c-0.7-1.8-0.7-3.6-0.1-5.4
	c10.8-36.3,21.1-70,30.8-101.2c1-3.2,2.4-7.3,4.2-12.3c0.4-1,0.5-2.2,0.6-3.4c0-0.6,0.2-1.2,0.5-1.8c1-1.9,1.4-4,1.3-6.1l1.3-4.4
	c0.1-0.2,0.3-0.3,0.5-0.3c0.1,0,0.1,0,0.2,0.1c0.2,0.2,0.4,0.4,0.5,0.8C236.9,36.5,238.2,40.4,239.3,44.2z"/>
<path class="st12" d="M97.1,478.7c17.4-56.7,33.1-107.8,47.2-153.1c0.2-0.7-0.1-1.4-0.7-1.7L0.4,245.2c-0.4-0.2-0.5-0.7-0.3-1
	c0.1-0.2,0.3-0.4,0.5-0.4c58.2-10.5,116.8-20.8,176-31.1c2.1-0.4,2.7-1.1,3.3-3.2c15.2-49.7,29.6-96.7,43.2-140.7
	c3.3-10.7,6.6-21.5,10-32.3c0.1,2.1-0.3,4.1-1.3,6.1c-0.3,0.6-0.4,1.2-0.5,1.8c-0.1,1.2-0.3,2.3-0.6,3.4c-1.8,5-3.2,9.1-4.2,12.3
	c-9.7,31.1-20,64.8-30.8,101.2c-0.6,1.8-0.5,3.7,0.1,5.4c0.1,0.2,0.3,0.3,0.6,0.3c0,0,0.1,0,0.1-0.1c0.8-0.6,1.2-0.5,1.3,0.3
	c0,0.1,0,0.1,0,0.2l-8.5,28.1c-0.1,0.2,0.1,0.4,0.2,0.4c0,0,0.1,0,0.1,0l93.7-9.3c0.1,0,0.2-0.1,0.1-0.2c0,0,0,0,0,0l-14.2-41.7
	c-0.1-0.3,0-0.6,0.3-0.8l3.6-2.4c5.8,16.2,11.5,32.4,16.9,48.7c0.5,1.4,1.6,1.9,3.4,1.6c33.2-6,107-19,221.2-39.1
	c2.5-0.4,5-0.7,7.5-0.8c-6.5,1.3-13,2.5-19.5,3.6c-10.6,1.9-21.2,3.7-31.8,5.5c-0.7,0.1-1.9,0.9-3.6,2.4
	c-40.3,36.4-80.7,72.9-121.2,109.6c0.3-0.1,0.2,0-0.2,0.2c-0.1,0.1-0.2,0.2-0.1,0.4c0,0.1,0.1,0.1,0.2,0.2l-20.4,18.3
	c-0.3,0.2-0.3,0.6-0.2,0.9l12.6,36.3c-0.2,0.6-0.2,1.1,0,1.6c1.6,4.8,3.3,9.7,5,14.5c-1.4,0.4-2.7,0.4-3.9,0.3
	c-0.3,0-0.6-0.3-0.7-0.6l-2.6-7.6c-0.1-0.3-0.5-0.5-0.8-0.4c0,0,0,0,0,0c-28.9,10.3-53.8,18-74.8,23c-16.4,4-34.6,8.3-52.5,13.7
	c-26.4,8-52.8,14.9-79.1,21c-0.3,0.1-0.6,0.3-0.7,0.6L109.8,454c-0.1,0.4-0.4,0.6-0.7,0.7c-1.7,0.5-3.1,1.5-4.1,2.8
	c-0.2,0.3-0.4,0.6-0.5,1l-12.5,39.2"/>
<path class="st10" d="M265.5,52c4.8,29.1,10.2,58.1,16.2,87.1l-9,1.6l-29.3-84.9L265.5,52z"/>
<path class="st8" d="M525.7,133.5c-0.6-11.3-0.8-23.1-0.4-35.3c0-0.7-0.6-1.3-1.3-1.3c-0.1,0-0.2,0-0.2,0
	c-6.5,1.2-12.4,2.2-17.9,3.2c-61.9,10.9-119,21-171.2,30.2c-3.3,0.6-11.2,2-23.6,4.3c-10.1,1.9-20.3,3.5-30.3,5.4
	c-2.5,0.5-5,0.8-7.5,0.9l-0.4-0.3l9-1.6l157.7-27.8l86.1-15.1c0.3,0,0.5,0.1,0.6,0.4c0,0,0,0.1,0,0.1L525.7,133.5z"/>
<path class="st9" d="M646.7,256.4c-3.4-24.5-3.7-49.6-2.3-73.2c0.3-4.3,0.9-9.8,2-16.6c36.5-6.4,73-12.9,109.5-19.3
	c4-0.7,7-0.9,9-0.5c10.8,2.2,17.4,8.5,19.9,19.1c0.4,1.8,0.6,5.3,0.5,10.6c-0.3,15.4-0.1,31.7,0,54.5c0,0.7-0.5,1.2-1.1,1.3
	L646.7,256.4z"/>
<path class="st8" d="M525.7,250.5l-0.6-8.4c0.1-0.3,0.2-0.4,0.5-0.4c0.2,0,0.4,0.1,0.4,0.3c0,0,0,0,0,0.1L525.7,250.5z"/>
<path class="st8" d="M524.4,242L346,273.8c-0.1-0.1-0.1-0.2-0.2-0.2c-0.1-0.1,0-0.3,0.1-0.4c0.4-0.2,0.4-0.3,0.2-0.2
	c59.6-10.5,118.9-21,177.9-31.5C524.3,241.6,524.4,241.7,524.4,242z"/>
<path class="st8" d="M785.1,258.9c-2.1-0.8-3.6-0.4-4.4,1.1c-8.1,14.7-21.2,26.8-36.8,33.2c-4,1.7-11.2,3.4-21.7,5.3
	c-22.6,4-45.2,8-67.7,12l-109.2,19.2c-0.5,0.1-0.9-0.2-1-0.7c0-0.1,0-0.1,0-0.2c0.2-5.3,1-13.5-0.8-18.7
	c-3.2-9.5-12.7-14.1-22.6-12.5c-6.1,1-18.4,3.2-36.9,6.6L366.1,325c-8.4,1.5-16.9,3-25.5,4.5c-0.8,0.1-1.3,0.1-1.5-0.1
	c0.2-0.1,0.4-0.2,0.6-0.2c17.8-3.1,76.5-13.5,176.4-31.2c4.3-0.8,7.1-1.2,8.4-1.2c12.7-0.6,21.5,9.5,20.8,21.8
	c-0.2,2.8-0.2,6-0.1,9.7c0,0.4,0.4,0.7,0.8,0.7c0,0,0,0,0.1,0c2.1-0.2,4.1-0.5,6.1-0.9c40.5-7.2,96.9-17.1,169-29.7
	c10.1-1.8,17.1-3.5,21.2-5.1c10-4,18.9-10.1,26.8-18.3c3.6-3.7,7.2-8.7,10.9-14.9c0.2-0.3,0.4-0.5,0.6-0.7
	C783.1,257.2,784.6,257.2,785.1,258.9z"/>
<path class="st9" d="M785.1,258.9l0.3,27.3c-0.2,22.5-0.3,45.1-0.1,67.5c0,4.9-0.3,8.5-1.2,10.8c-2.1,5.9-5.7,10.4-10.9,13.5
	c-2.3,1.3-7.2,2.7-15,4c-37.2,6.5-74.4,13.1-111.6,19.6c-2-15.3-2.9-30.6-2.7-46c0.1-7.2-0.1-19.7,0.7-29.8
	c0.5-6.7,3.8-11.9,9.8-15.4c22.5-4,45.1-8,67.7-12c10.5-1.9,17.7-3.6,21.7-5.3c15.5-6.5,28.7-18.5,36.8-33.2
	C781.5,258.5,783,258.2,785.1,258.9z"/>
<path class="st8" d="M785.4,286.2c0.5,2.1,0.7,4.3,0.7,6.6c0,28.5,0,49.5,0,62.8c0,1.4-0.3,3.9-1,7.3c-1.9,10.4-9.8,16.9-20.4,18.8
	c-117.9,20.8-186.8,33-206.8,36.5c-0.7,0.1-2.5,0.3-5.5,0.7c-8.7,1-15.9-1.9-21.4-8.5c-3.2-3.8-4.9-8.3-5.1-13.5
	c0.7,2.1,1,4.5,1.7,6.3c2.4,5.9,6.4,10.3,11.9,13c5.9,2.9,11.4,2.7,18.3,1.5c29.7-5.3,59.4-10.5,89-15.7
	c37.2-6.6,74.4-13.1,111.6-19.6c7.7-1.4,12.7-2.7,15-4c5.2-3.1,8.8-7.6,10.9-13.5c0.8-2.3,1.2-5.9,1.2-10.8
	C785.1,331.3,785.2,308.7,785.4,286.2z"/>
<path class="st10" d="M654.5,310.6c-6,3.6-9.3,8.7-9.8,15.4c-0.8,10.1-0.6,22.6-0.7,29.8c-0.2,15.4,0.7,30.7,2.7,46
	c-29.6,5.2-59.3,10.4-89,15.7c-6.9,1.2-12.4,1.5-18.3-1.5c-5.5-2.8-9.4-7.1-11.9-13c-0.7-1.8-1-4.2-1.7-6.3c-0.1,0.1-0.1,0-0.1-0.4
	l0.3-8.9c0-0.3-0.2-0.6-0.5-0.6c0,0-0.1,0-0.1,0l-37.3,6.6c0.1-13.6,0.2-27.1,0.2-40.6c0-16.1-1.4-32.3-4.3-48.6
	c18.5-3.4,30.8-5.6,36.9-6.6c9.9-1.6,19.3,3,22.6,12.5c1.8,5.1,1,13.4,0.8,18.7c0,0.5,0.4,0.9,0.8,0.9c0.1,0,0.1,0,0.2,0
	L654.5,310.6z"/>
<path class="st9" d="M488.1,393.4l-101.5,17.9L366.1,325L484,304.3c2.9,16.3,4.3,32.4,4.3,48.6C488.3,366.3,488.2,379.8,488.1,393.4
	z"/>
<path class="st10" d="M366.1,325l20.4,86.4l-17.7,3.3c-0.6,0.3-0.8,1.2-0.6,2.6c-0.6,0.4-0.9-0.2-0.8-1.7c0-0.3-0.1-0.6-0.3-0.9
	c-0.4-0.5-0.7-1.2-1-2.1c-7.7-22.4-15.4-44.7-23.1-67.1c-1.7-4.8-3.4-9.7-5-14.5c-0.2-0.5-0.2-1,0-1.6c0.2,0.2,0.5,0.2,1.1,0
	c0.2,0.2,0.8,0.3,1.5,0.1C349.2,328,357.7,326.5,366.1,325z"/>
<path class="st11" d="M91.8,497.7l12.5-39.2c0.1-0.4,0.3-0.7,0.5-1c1.1-1.3,2.4-2.2,4.1-2.8c0.3-0.1,0.6-0.4,0.7-0.7l18.1-58.6
	c0.1-0.3,0.4-0.6,0.7-0.6c26.3-6,52.7-13,79.1-21c18-5.4,36.1-9.7,52.5-13.7c20.9-5,45.9-12.7,74.8-23c0.3-0.1,0.7,0,0.8,0.4
	c0,0,0,0,0,0l2.6,7.6c0.1,0.3,0.4,0.5,0.7,0.6c1.2,0.2,2.5,0.1,3.9-0.3c7.7,22.4,15.4,44.8,23.1,67.1c0.3,0.9,0.7,1.6,1,2.1
	c0.2,0.3,0.3,0.6,0.3,0.9c-0.1,1.5,0.2,2.1,0.8,1.7l2,6.9c1.9,7.8,4.5,15.2,7.8,22.4c0.9,1.6,1.5,3.3,1.8,5.4
	c-1.1,0.2-2.1,0-3.1-0.6c-7.3-4.2-21.4-12.1-42.3-23.5c-29.1-15.9-53.1-29.1-72.1-39.8c-0.3-0.2-0.4-0.5-0.2-0.8l1.4-2.5
	c0.2-0.3,0.1-0.7-0.3-0.9l-28.5-15.7c-0.3-0.2-0.6-0.1-0.8,0.1l-44,40c-0.2,0.1-0.2,0.4,0,0.5c0,0,0.1,0.1,0.1,0.1
	c1.7,1,1.9,2.8,0.5,4.2c-33,30-61.4,55.7-85.2,77.2"/>
<path class="st12" d="M105.2,490.3c23.8-21.5,52.2-47.2,85.2-77.2c1.4-1.3,1.2-3.2-0.5-4.2c-0.2-0.1-0.2-0.3-0.1-0.5
	c0,0,0-0.1,0.1-0.1l44-40c0.2-0.2,0.6-0.2,0.8-0.1l28.5,15.7c0.3,0.2,0.4,0.5,0.3,0.9l-1.4,2.5c-0.2,0.3,0,0.7,0.2,0.8
	c19,10.6,43.1,23.9,72.1,39.8c20.9,11.4,35,19.2,42.3,23.5c1,0.6,2,0.8,3.1,0.6c0.2,0.5,0.4,0.9,0.4,1.2c0,0.2-0.2,0.4-0.4,0.4
	c-0.1,0-0.2,0-0.2-0.1l-142.1-78.1c-0.4-0.9-1-1.5-1.9-1.7c-0.3-0.1-0.6-0.1-0.9,0c-1.4,0.6-2.4,1.7-3,3L90.3,504.9"/>
<path class="st8" d="M237.6,375.5c-1.8-1.1-3.8-0.6-5.9,1.3c0.6-1.4,1.7-2.4,3-3c0.3-0.1,0.6-0.2,0.9,0
	C236.5,374,237.2,374.6,237.6,375.5z"/>
<path class="st8" d="M525.8,396.3l-0.6-7.5c0-0.6-0.6-1.1-1.2-1.1c-0.8,0-2.1,0.2-3.8,0.5c-20.2,3.7-48.3,8.7-84.1,15
	c-16.9,3-43,7.9-64.3,11.5c-1.1,0.2-2.1,0.2-2.8-0.1l17.7-3.3l101.5-17.9l37.3-6.6c0.3-0.1,0.6,0.1,0.7,0.4c0,0,0,0.1,0,0.1
	L525.8,396.3z"/>
<path class="st12" d="M378.1,446.6c-3.3-7.2-5.8-14.7-7.8-22.4C373.5,431.5,376.1,438.9,378.1,446.6z"/>
</svg>
